<?xml version="1.0"?>
<svg xmlns="http://www.w3.org/2000/svg" xmlns:xlink="http://www.w3.org/1999/xlink" version="1.1" id="Capa_1" x="0px" y="0px" width="512px" height="512px" viewBox="0 0 512 512" style="enable-background:new 0 0 512 512;" xml:space="preserve"><g><g>
	<g>
		<path d="M448,160h-98.438C340.062,66.125,303.031,0,256,0c-47.063,0-84.063,66.125-93.563,160H64L0,512h512L448,160z M256,32    c25.125,0,52.469,52.469,61.031,128H194.969C203.531,84.469,230.875,32,256,32z M176,264c-13.25,0-24-10.75-24-24s10.75-24,24-24    s24,10.75,24,24S189.25,264,176,264z M336,264c-13.25,0-24-10.75-24-24s10.75-24,24-24s24,10.75,24,24S349.25,264,336,264z" data-original="#000000" class="active-path" fill="#9d9d9d"/>
	</g>
</g></g> </svg>
